<svg width="24" height="26" viewBox="0 0 24 26" fill="none" xmlns="http://www.w3.org/2000/svg">
<path d="M21.3675 0.291016L20.7851 1.2161C20.7851 1.2161 16.8791 2.5866 17.9755 8.00006L17.3203 9.4348C17.3203 9.4348 17.9027 6.21413 15.196 4.22691L14.7849 2.99346V4.26117C14.7849 4.26117 12.7205 8.46689 16.4295 11.3192L15.4016 13.6148C15.4016 13.6148 15.6757 10.4627 13.3458 8.68102L12.7976 7.48184L12.969 8.85234C12.969 8.85234 10.6305 12.0302 14.5108 15.8419L13.5514 17.9319C13.5514 17.9319 13.7399 14.8483 11.3158 13.2037L10.9132 11.9702V13.3407C10.9132 13.3407 8.88316 17.4436 12.5235 20.2617L11.7012 22.2147C11.7012 22.2147 11.3929 18.6857 9.47418 17.555L9.02877 16.5271V17.8976C9.02877 17.8976 7.2043 22.1376 10.5706 24.6816L10.1252 25.7094H10.8447L11.153 24.9899C11.153 24.9899 15.4958 25.6409 17.3203 21.2896L18.2454 20.3302L17.0804 20.8099C17.0804 20.8099 14.9562 20.4587 12.2837 22.386L13.106 20.4673C13.106 20.4673 17.1404 21.4609 19.1704 16.767L20.0955 15.9104L19.0677 16.3558C19.0677 16.3558 15.6072 16.0817 14.0653 18.1717L14.9476 16.0132C14.9476 16.0132 20.0184 16.3901 21.1234 12.2101L21.98 11.422L20.9521 11.8332C20.9521 11.8332 17.8 11.482 15.9155 13.7861L16.7721 11.5248C16.7721 11.5248 21.4232 12.1758 23.0078 7.7902L24.0015 6.86512L22.9051 7.37905C22.9051 7.37905 19.9842 6.7709 17.6629 9.53759L18.3139 8.0643C18.3139 8.0643 22.2541 5.87151 21.0549 1.45166L21.3675 0.291016Z" fill="white"/>
<path d="M3.24208 3.7168L3.49905 4.62475C3.49905 4.62475 6.15439 6.64623 4.32135 10.141L4.52264 11.3359C4.52264 11.3359 4.73678 8.6977 7.09232 7.824L7.64052 7.03597L7.40068 7.99532C7.40068 7.99532 8.25724 11.4301 4.79674 12.9976L5.1051 14.8906C5.1051 14.8906 5.4049 12.5522 7.64052 11.5243L8.20585 10.7363L7.93175 11.6957C7.93175 11.6957 8.8911 15.0105 5.39633 16.6637L5.63617 18.4111C5.63617 18.4111 6.1758 16.0299 8.20585 15.2932L8.77118 14.4709L8.53134 15.4131C8.53134 15.4131 9.37077 18.4711 6.00449 20.3983L6.23576 22.06C6.23576 22.06 6.84392 19.8159 8.25724 19.2591C8.25724 19.2591 7.90605 20.6467 8.53134 22.2999C8.53134 22.2999 7.94888 23.5076 6.59552 24.013L6.85248 25.709H6.23576L6.00449 24.1843C6.00449 24.1843 2.46689 23.362 2.17566 20.1071L1.6446 19.2591L2.46689 19.9529C2.46689 19.9529 4.92522 20.2527 5.68756 22.0943L5.49912 20.4497C5.49912 20.4497 2.10714 20.1756 1.6446 16.4581L1.11353 15.6358L1.85017 16.2012C1.85017 16.2012 4.34276 16.5181 5.24215 18.5481L5.01944 16.698C5.01944 16.698 1.26771 15.9613 1.11353 12.7064L0.548199 11.9355L1.3191 12.4494C1.3191 12.4494 3.82883 12.852 4.74534 14.8906L4.48838 12.9976C4.48838 12.9976 0.925085 12.518 0.548199 8.98893L0 8.13237L0.753773 8.74909C0.753773 8.74909 3.45194 9.20307 4.24854 11.353L4.09436 10.2224C4.09436 10.2224 1.43046 8.13237 3.22067 4.74039L3.24208 3.7168Z" fill="white"/>
</svg>
