<svg width="16" height="22" viewBox="0 0 16 22" fill="none" xmlns="http://www.w3.org/2000/svg">
<path d="M0.132386 4.78115C0.335147 4.61335 0.818356 4.13325 0.779513 3.38824C0.773298 3.27559 0.854091 3.17693 0.96596 3.15673L4.04622 2.59428C4.12857 2.57952 4.21014 2.62536 4.23889 2.70304C4.35075 3.0068 4.68247 3.66091 5.30008 2.97494C5.30552 2.96873 5.31096 2.96174 5.31562 2.95475L6.64483 0.991612C6.72795 0.86809 6.86701 0.793511 7.01617 0.791181L15.1274 0.662221C15.1321 0.662221 15.1367 0.662222 15.1414 0.661445C15.2183 0.654453 16.135 0.614056 15.954 2.55777C15.9532 2.56321 15.9532 2.56942 15.9532 2.57486L15.9827 20.1786C15.9827 20.1871 15.9835 20.1957 15.9851 20.205C16.0045 20.3169 16.1202 21.1753 15.122 21.2856C14.0755 21.4014 1.66203 21.2903 1.1392 21.2856C1.12832 21.2856 1.11745 21.2864 1.10735 21.2879C0.958968 21.3128 -0.221864 21.4635 0.137047 19.9642C0.140931 19.9494 0.142485 19.9346 0.142485 19.9191L0.0469306 4.96604C0.0453769 4.89535 0.0764514 4.82699 0.132386 4.78115Z" fill="white"/>
<path d="M7.37849 8.55105C7.37849 8.55105 7.98755 7.17056 8.77374 8.55105C9.55993 9.93154 12.693 15.2616 12.693 15.2616C12.693 15.2616 13.1382 16.1371 12.693 16.4199C12.2479 16.7019 3.6076 16.4199 3.6076 16.4199C3.6076 16.4199 2.9395 16.3306 3.4297 15.2616C3.91912 14.1926 7.37849 8.55105 7.37849 8.55105Z" fill="#3D464D"/>
<path d="M7.67578 13.6591V10.185C7.67578 10.0537 7.78221 9.94727 7.9135 9.94727H8.41846C8.54975 9.94727 8.65618 10.0537 8.65618 10.185V13.6591C8.65618 13.7904 8.54975 13.8968 8.41846 13.8968H7.9135C7.78221 13.8961 7.67578 13.7896 7.67578 13.6591Z" fill="white"/>
<path d="M8.00425 14.4082H8.37559C8.49445 14.4082 8.59079 14.5045 8.59079 14.6234V15.0243C8.59079 15.1431 8.49445 15.2394 8.37559 15.2394H8.00425C7.88539 15.2394 7.78906 15.1431 7.78906 15.0243V14.6234C7.78906 14.5045 7.88539 14.4082 8.00425 14.4082Z" fill="white"/>
<path d="M7.52037 1.70985L14.5362 1.56846C14.7747 1.5638 14.9884 1.71762 15.0559 1.9468C15.1088 2.12625 15.1119 2.37562 14.9751 2.7089C14.8944 2.90544 14.7056 3.03596 14.4927 3.03984L7.53823 3.17502C7.37509 3.17812 7.21972 3.10665 7.1164 2.9808C6.93539 2.75862 6.75205 2.36941 7.11562 1.91028C7.2135 1.78521 7.36266 1.71296 7.52037 1.70985Z" fill="white"/>
<path d="M0.36307 1.51782L3.56375 1.03384C3.56375 1.03384 4.36081 0.974017 4.19611 2.01812C4.17902 2.12611 4.09201 2.21156 3.98092 2.23098L0.559616 2.83616C0.467169 2.85247 0.372392 2.82839 0.30092 2.7709C0.105928 2.61242 -0.20171 2.23797 0.186721 1.63124C0.225565 1.57065 0.290044 1.5287 0.36307 1.51782Z" fill="white"/>
</svg>
