<svg width="17" height="16" viewBox="0 0 17 16" fill="none" xmlns="http://www.w3.org/2000/svg">
<path d="M12.0558 3.9425L10.2483 3.125L12.0558 2.3075L12.8733 0.5L13.6908 2.3075L15.4983 3.125L13.6908 3.9425L12.8733 5.75L12.0558 3.9425ZM14.9583 8.54L14.3733 7.25L13.7883 8.54L12.4983 9.125L13.7883 9.71L14.3733 11L14.9583 9.71L16.2483 9.125L14.9583 8.54ZM11.1783 9.7775L12.6333 10.88L10.7583 14.1275L9.07828 13.4225C8.92828 13.52 8.76328 13.6175 8.59828 13.7L8.37328 15.5H4.62328L4.39828 13.6925C4.23328 13.61 4.07578 13.52 3.91828 13.415L2.23828 14.12L0.363281 10.8725L1.81828 9.77C1.81078 9.6875 1.81078 9.59 1.81078 9.5C1.81078 9.41 1.81078 9.3125 1.81828 9.2225L0.363281 8.12L2.23828 4.8725L3.91828 5.5775C4.06828 5.48 4.23328 5.3825 4.39828 5.3L4.62328 3.5H8.37328L8.59828 5.3075C8.76328 5.39 8.92078 5.48 9.07828 5.585L10.7583 4.88L12.6333 8.1275L11.1783 9.23C11.1858 9.32 11.1858 9.41 11.1858 9.5075C11.1858 9.605 11.1858 9.6875 11.1783 9.7775ZM8.74828 9.5C8.74828 8.255 7.74328 7.25 6.49828 7.25C5.25328 7.25 4.24828 8.255 4.24828 9.5C4.24828 10.745 5.25328 11.75 6.49828 11.75C7.74328 11.75 8.74828 10.745 8.74828 9.5Z" fill="white"/>
</svg>
